/vscmnt/brussel_pixiu_data/_data_brussel/112/vsc11236/PredSimResults/SUBJ07mtu3D/worker5.mot
version=1
nRows=9
nColumns=50
inDegrees=yes
endheader
                time	         pelvis_tilt	         pelvis_list	     pelvis_rotation	           pelvis_tx	           pelvis_ty	           pelvis_tz	       hip_flexion_r	     hip_adduction_r	      hip_rotation_r	        knee_angle_r	       ankle_angle_r	         mtp_angle_r	       hip_flexion_l	     hip_adduction_l	      hip_rotation_l	        knee_angle_l	       ankle_angle_l	         mtp_angle_l	    lumbar_extension	      lumbar_bending	     lumbar_rotation	 ercspn_r/activation	 intobl_r/activation	 extobl_r/activation	    abd_r/activation	    add_r/activation	hamstrings_r/activation	bifemsh_r/activation	glut_max_r/activation	iliopsoas_r/activation	rect_fem_r/activation	  vasti_r/activation	gastroc_r/activation	 soleus_r/activation	tib_ant_r/activation	 ercspn_l/activation	 intobl_l/activation	 extobl_l/activation	    abd_l/activation	    add_l/activation	hamstrings_l/activation	bifemsh_l/activation	glut_max_l/activation	iliopsoas_l/activation	rect_fem_l/activation	  vasti_l/activation	gastroc_l/activation	 soleus_l/activation	tib_ant_l/activation	
          0.00000000	         -2.99008003	          0.91687454	          8.40163023	          0.00000000	          0.85441025	         -0.01322860	         28.80912977	         -3.03354417	         -2.34544707	         -6.31705442	          3.07757556	          0.27332190	        -15.18445590	          1.35183626	          4.36391921	         -5.92802364	          9.25549076	         23.36943928	        -12.18592014	         -2.79891725	         -1.84413000	          0.13116617	          0.18613719	          0.00999999	          0.04386270	          0.07978767	          0.05449750	          0.13954134	          0.02769988	          0.02258815	          0.02560893	          0.00999999	          0.01161090	          0.00999999	          0.40596983	          0.06294589	          0.00999999	          0.00999999	          0.04577703	          0.00999999	          0.01224241	          0.16363634	          0.01749145	          0.18550065	          0.00999999	          0.00999999	          0.14883924	          0.26857226	          0.01851188	
          0.01061996	         -3.00767175	          1.03660116	          8.40715645	          0.01487195	          0.85292567	         -0.01340726	         28.59727849	         -2.89608688	         -2.19141419	         -7.49929918	          2.87376120	          0.27517697	        -15.69024523	          1.40924839	          4.02365678	         -6.82767703	          8.54378481	         24.96046597	        -12.06778807	         -2.43449487	         -2.03658270	          0.11347811	          0.15814554	          0.00999999	          0.03726655	          0.10787818	          0.04630207	          0.11855686	          0.08521956	          0.01919130	          0.02175782	          0.00999999	          0.01385326	          0.01385326	          0.40147140	          0.12111150	          0.00999999	          0.00999999	          0.03889300	          0.00999999	          0.01385326	          0.13902841	          0.01486106	          0.15760472	          0.01176998	          0.00999999	          0.12645653	          0.25062393	          0.01572803	
          0.02123992	         -3.01803572	          1.13490816	          8.36844904	          0.02996644	          0.85156512	         -0.01354826	         28.30790404	         -2.79875086	         -1.91744018	         -8.83724415	          2.68115948	          0.25745920	        -16.10991139	          1.45400683	          3.65836578	         -7.91146712	          7.75075702	         26.53243675	        -11.93167554	         -2.03279324	         -2.22423941	          0.10860409	          0.13436333	          0.00999999	          0.06622570	          0.09596649	          0.05421553	          0.11525043	          0.11342977	          0.01630528	          0.01848584	          0.00999999	          0.01176998	          0.01176998	          0.44114294	          0.13618127	          0.00999999	          0.00999999	          0.03304420	          0.01211969	          0.01176998	          0.11812107	          0.01262622	          0.13390384	          0.00999999	          0.00999999	          0.10743976	          0.22570426	          0.01336282	
          0.03185987	         -3.02523245	          1.22590083	          8.27991591	          0.04512524	          0.85047932	         -0.01358962	         27.97593560	         -2.71328290	         -1.68584333	        -10.06624545	          2.35960597	          0.24568713	        -16.36355816	          1.50432934	          3.26422654	         -9.29347522	          6.85185770	         28.07154746	        -11.79536070	         -1.62293082	         -2.40152354	          0.12848485	          0.11415753	          0.00999999	          0.12597290	          0.11298970	          0.05000336	          0.09791887	          0.12556970	          0.01385326	          0.01570590	          0.00999999	          0.00999999	          0.00999999	          0.46695489	          0.15645328	          0.00999999	          0.00999999	          0.02807495	          0.01029711	          0.01000001	          0.10035781	          0.01072747	          0.11376714	          0.00999999	          0.00999999	          0.09128278	          0.19176245	          0.01135330	
          0.04247983	         -3.02973440	          1.31300306	          8.14743743	          0.06019246	          0.84980250	         -0.01352813	         27.68142003	         -2.62390520	         -1.51142052	        -11.35213178	          2.10990668	          0.22634112	        -16.37165702	          1.56500260	          2.84208345	        -11.09187936	          5.84035431	         29.52834942	        -11.67451935	         -1.21019863	         -2.56763679	          0.13602599	          0.09699031	          0.00999999	          0.16871478	          0.13736638	          0.04416270	          0.08319365	          0.14838215	          0.01176998	          0.01334402	          0.01022606	          0.00999999	          0.00999999	          0.47872446	          0.19107585	          0.00999999	          0.00999999	          0.02385299	          0.01676173	          0.01177000	          0.08526582	          0.00999999	          0.09665863	          0.00999999	          0.01000001	          0.07755551	          0.16292486	          0.00999999	
          0.05309979	         -3.03144435	          1.39463720	          7.97660846	          0.07506739	          0.84963349	         -0.01336808	         27.45144116	         -2.52652657	         -1.37699101	        -12.75452927	          2.03897987	          0.20908565	        -16.06522017	          1.63397567	          2.38613602	        -13.40898174	          4.70464801	         30.82207722	        -11.57489014	         -0.79609080	         -2.72299247	          0.14224074	          0.08240473	          0.00999999	          0.19773968	          0.15767783	          0.04420274	          0.07068284	          0.16274099	          0.00999999	          0.01133732	          0.03471081	          0.00999999	          0.00999999	          0.47960164	          0.22247447	          0.00999999	          0.00999999	          0.02026593	          0.03776587	          0.01000002	          0.07244339	          0.00999999	          0.08212293	          0.00999999	          0.00999999	          0.06589257	          0.13842392	          0.00999999	
          0.06371975	         -3.03132933	          1.47393063	          7.76952445	          0.08970065	          0.85005552	         -0.01311968	         27.22701294	         -2.42181942	         -1.26652238	        -14.14921888	          2.10889199	          0.19307240	        -15.38791840	          1.71190631	          1.88419608	        -16.32117117	          3.41796783	         31.81458925	        -11.49547583	         -0.38747988	         -2.86627872	          0.14590185	          0.07001256	          0.00999999	          0.21114522	          0.17036136	          0.04513941	          0.06005342	          0.16833677	          0.00999999	          0.00999999	          0.05920702	          0.00999999	          0.00999999	          0.46499711	          0.23758541	          0.00999999	          0.00999999	          0.01721830	          0.05821610	          0.01000001	          0.06154922	          0.00999999	          0.06977313	          0.00999999	          0.00999999	          0.05598352	          0.11760748	          0.00999999	
          0.07433970	         -3.03056925	          1.55290713	          7.52813592	          0.10408852	          0.85108201	         -0.01279419	         26.93055996	         -2.30827882	         -1.16047142	        -15.39253008	          2.29894467	          0.18184086	        -14.30691026	          1.79183936	          1.33700823	        -19.86040293	          1.93778981	         32.34237867	        -11.43091429	          0.01095506	         -2.99521176	          0.13320516	          0.05948394	          0.00999999	          0.20771527	          0.17517854	          0.04968415	          0.05102248	          0.16415049	          0.00999999	          0.00999999	          0.07959553	          0.00999999	          0.00999999	          0.44696382	          0.24727169	          0.00999999	          0.00999999	          0.01462898	          0.07057116	          0.01000000	          0.05229334	          0.00999999	          0.05928052	          0.00999999	          0.00999999	          0.04756462	          0.09992146	          0.00999999	
          0.08495966	         -3.03035610	          1.63060501	          7.25334736	          0.11823252	          0.85265584	         -0.01238894	         26.50592453	         -2.18107850	         -1.03707024	        -16.37526004	          2.57608333	          0.18250941	        -12.81107018	          1.86161262	          0.76916071	        -24.01029510	          0.21727522	         32.22062532	        -11.37813038	          0.39572203	         -3.10786726	          0.11317353	          0.05053864	          0.00999999	          0.20446895	          0.16977177	          0.05942840	          0.04334963	          0.14462274	          0.00999999	          0.00999999	          0.11106468	          0.00999999	          0.00999999	          0.42413243	          0.24255301	          0.00999999	          0.00999999	          0.01242905	          0.08983029	          0.00999999	          0.04442937	          0.00999999	          0.05036581	          0.00999999	          0.00999999	          0.04041177	          0.08489509	          0.04100827	
